<svg xmlns="http://www.w3.org/2000/svg" version="1.1" viewBox="0 0 892 896">
    <path transform="translate(366,22)" d="m0 0h37l32 3 34 7 29 9 21 8 29 14 20 12 20 14 14 11 11 10 8 7 15 15 7 8 14 17 14 20 13 22 11 21 11 27 8 25 6 25 4 26 2 25v31l-2 25-5 30-7 28-9 25-9 21-12 23-11 18-10 14-6 9 6 7 26 26 8 7 38 38 8 7 34 34 2 1v2l4 2 56 56 7 10 5 10 3 14v9l-2 12-4 10-7 11-9 10-12 11-15 13-11 7-10 4-5 1h-19l-13-3-13-7-12-11-14-17-11-14-18-22-11-14-14-17-11-14-10-12-8-10-13-16-11-14-10-12-11-14-11-13-6-8-4 1-16 9-23 11-30 11-26 7-20 4-22 3-14 1h-42l-28-3-23-4-30-8-25-9-25-11-22-12-12-8-19-13-13-11-11-9-27-27-9-11-10-13-12-17-14-24-8-16-8-18-9-25-7-26-5-27-3-32v-32l3-35 5-26 7-26 8-23 11-24 11-21 14-22 9-12 8-10 12-14 14-15 8-7 7-7 11-9 20-15 19-12 18-10 23-11 24-9 28-8 25-5 22-3zm4 62-29 3-24 5-21 6-25 10-20 10-15 9-16 11-11 9-14 12-15 15-9 11-7 8-13 19-8 13-11 21-11 27-7 25-4 19-3 23v45l4 30 7 28 8 23 7 16 12 22 7 11 12 17 11 13 12 13 13 13 11 9 16 12 19 12 25 13 22 9 28 8 20 4 29 3h28l23-2 23-4 26-7 19-7 20-9 22-12 15-10 13-10 15-13 19-19 9-11 10-13 11-17 13-24 10-23 9-29 5-24 3-25v-40l-3-25-6-27-10-30-11-24-10-18-11-16-10-13-11-13-3-4h-2l-2-4-8-8-8-7-13-11-19-13-11-7-18-10-23-10-27-9-22-5-20-3-13-1z"/>
    <path transform="translate(493,229)" d="m0 0h67l8 7 3 7v241l-4 6-5 5-8 2h-58l-7-3-7-8-1-3v-241l3-6 7-6z"/>
    <path transform="translate(213,301)" d="m0 0h64l8 6 4 8v168l-3 6-6 6-7 2h-57l-8-2-5-5-3-4-1-3v-169l3-6 6-5z"/>
    <path transform="translate(352,369)" d="m0 0h66l6 4 5 8 1 4v95l-3 9-8 7-5 1h-59l-6-2-6-5-3-5v-104l6-9z"/>
</svg>
