<svg version="1.1" viewBox="0 0 1024 1024" xmlns="http://www.w3.org/2000/svg">
    <path transform="translate(474,37)" d="m0 0h53l32 3 31 5 36 9 36 12 26 11 30 15 20 12 21 14 21 16 13 11 8 7 12 11 17 17 7 8 12 14 13 17 12 17 12 19 10 18 8 15 12 27 11 30 8 28 6 26 5 32 2 21 1 20v16l-3 11-6 8-6 5-9 4-5 1h-7l-10-3-9-6-6-8-3-8-2-37-3-27-7-36-8-27-7-20-10-23-8-16-8-15-12-19-12-17-11-14-9-10-7-8-25-25-11-9-16-13-24-16-22-13-22-11-27-11-27-9-29-7-23-4-29-3h-50l-29 3-23 4-25 6-20 6-22 8-25 11-26 14-19 12-14 10-13 10-14 12-12 11-17 17-7 8-13 16-13 18-14 22-13 24-10 22-9 24-8 26-6 26-5 35-1 13v50l3 29 5 28 8 30 8 24 11 26 11 22 10 17 14 21 13 17 11 13 9 10 10 11 8 7 13 12 14 11 13 10 20 13 21 12 24 12 28 11 25 8 25 6 29 5 20 2 37 2 10 4 7 6 6 10 2 8v7l-3 11-6 8-6 5-9 4-5 1h-16l-32-2-35-5-28-6-29-8-28-10-23-10-19-9-23-13-19-12-17-12-14-11-11-9-12-11-8-7-19-19-7-8-12-14-15-20-12-17-15-25-14-27-10-22-10-27-8-26-7-30-5-30-3-32v-53l3-32 6-35 8-32 11-33 11-26 12-25 13-23 18-27 16-21 12-14 9-10 12-13 7-7 8-7 11-10 14-11 17-13 24-16 21-12 23-12 28-12 28-10 29-8 29-6 28-4z"/>
    <path transform="translate(520,475)" d="m0 0h7l13 4 47 17 331 122 46 17 9 5 7 7 4 8 1 4v13l-3 9-7 9-10 6-27 6-180 36h-4l-2 13-39 195-5 10-5 6-8 5-7 2h-13l-10-4-8-7-5-8-16-43-126-342-18-49-1-5v-7l3-11 6-8 6-5 9-4zm58 87 1 5 23 63 17 46 42 114 11 29 2-4 22-110 3-9 7-9 8-5 22-5 99-20-2-2-49-18-171-63-32-12z"/>
    <path transform="translate(478,165)" d="m0 0h46l26 3 25 5 22 6 28 10 29 14 17 10 16 11 17 13 11 10 8 7 14 14 7 8 13 16 13 19 9 15 12 23 9 21 5 14 1 12-3 11-6 8-7 6-13 4h-7l-10-3-9-6-6-8-11-28-10-20-13-21-10-13-11-13-22-22-17-13-10-7-15-9-17-9-25-10-25-7-20-4-19-2h-39l-24 3-27 6-26 9-18 8-18 10-15 10-13 10-14 12-16 16-9 11-12 16-12 20-8 16-8 19-7 22-5 23-3 24v39l3 24 5 23 6 20 10 24 10 19 14 21 10 13 11 12 5 6 8 7 11 10 19 14 22 13 23 11 21 8 9 7 6 10 2 8v7l-4 13-9 10-8 4-8 2-12-1-24-9-29-14-17-10-19-13-14-11-11-10-8-7-14-14-7-8-12-15-12-17-12-20-12-23-10-25-7-22-6-25-4-27-1-11v-46l3-27 6-29 7-24 8-21 11-24 12-21 8-12 14-19 13-15 14-15 13-12 11-9 16-12 17-11 21-12 24-11 25-9 26-7 21-4z"/>
    <path transform="translate(483,293)" d="m0 0h35l21 3 19 5 19 7 16 8 14 8 17 13 13 12 7 7 9 11 9 13 4 10v13l-4 10-7 8-5 4-8 3h-15l-10-4-8-7-8-11-9-10v-2l-4-2-10-9-14-9-14-7-18-6-17-3h-29l-20 4-17 6-17 9-12 9-10 9-10 11-10 15-8 17-5 16-3 16v29l4 20 5 15 8 16 9 13 9 10 1 3 4 2 10 9 10 7 6 7 4 10v15l-4 9-7 8-8 5-6 2h-13l-10-4-14-10-14-12-11-11-11-14-7-10-10-17-9-21-6-19-4-21-1-9v-35l3-20 5-20 8-21 11-21 8-12 11-14 12-13 8-7 15-12 20-12 19-9 21-7 24-5z"/>
</svg>
