<svg viewBox="0 0 24 24" xmlns="http://www.w3.org/2000/svg" id="Sledgehammer--Streamline-Solar" >
  <path d="M7.60379 4.60379C9.33965 2.86793 10.2076 2 11.2861 2s1.9465 0.86793 3.6823 2.60379l4.4188 4.41877c1.7358 1.73584 2.6038 2.60374 2.6038 3.68234 0 1.0785 -0.868 1.9464 -2.6038 3.6823 -1.7359 1.7358 -2.6038 2.6038 -3.6823 2.6038 -1.0786 0 -1.9465 -0.868 -3.6823 -2.6038l-4.41881 -4.4188C5.86793 10.2326 5 9.36462 5 8.2861c0 -1.07853 0.86793 -1.94645 2.60379 -3.68231Z" ></path>
  <path d="m7.284 13.7699 -4.45819 4.4582c-0.34244 0.3425 -0.51367 0.5137 -0.61651 0.6918 -0.27907 0.4834 -0.27907 1.0789 0 1.5623 0.10284 0.1781 0.27406 0.3493 0.61648 0.6917 0.34245 0.3425 0.5137 0.5137 0.69182 0.6166 0.48337 0.2791 1.0789 0.2791 1.56227 0 0.17812 -0.1029 0.34934 -0.2741 0.69179 -0.6165l4.45814 -4.4582 -2.9458 -2.9459Z" ></path>
  <path d="m8.34466 12.7093 0.00439 -0.0044 2.94585 2.9458 -0.0044 0.0044 -2.94584 -2.9458Z" ></path>
  <path d="M19.6686 7.18261c0.2547 -0.47531 0.2467 -1.04997 -0.0241 -1.51902 -0.1029 -0.17812 -0.2741 -0.34934 -0.6165 -0.69178 -0.3425 -0.34245 -0.5137 -0.51367 -0.6918 -0.61651 -0.4691 -0.2708 -1.0437 -0.27883 -1.519 -0.02407l2.8514 2.85138Z" ></path>
</svg>