<svg viewBox="0 0 20 20" xmlns="http://www.w3.org/2000/svg">
    <path d="m8.14141,6.79669c-0.34215,0 -0.61953,0.28684 -0.61953,0.64066c0,0.35382 0.27738,0.64066 0.61953,0.64066l3.71718,0c0.3421,0 0.61953,-0.28684 0.61953,-0.64066c0,-0.35382 -0.27743,-0.64066 -0.61953,-0.64066l-3.71718,0zm-5.57577,5.76595c0,-0.35377 0.27738,-0.64066 0.61953,-0.64066l4.95624,0c0.34215,0 0.61953,0.28689 0.61953,0.64066c0,0.35377 -0.27738,0.64066 -0.61953,0.64066l-4.95624,0c-0.34215,0 -0.61953,-0.28689 -0.61953,-0.64066zm9.29295,-0.64066c-0.3421,0 -0.61953,0.28689 -0.61953,0.64066c0,0.35377 0.27743,0.64066 0.61953,0.64066l4.95624,0c0.3421,0 0.61953,-0.28689 0.61953,-0.64066c0,-0.35377 -0.27743,-0.64066 -0.61953,-0.64066l-4.95624,0zm3.8992,-3.52877c-0.28796,-2.97613 -2.26785,-5.44048 -5.75779,-5.44048c-3.49,0 -5.46813,2.44479 -5.75774,5.44048l-0.31119,0.00639c-2.1422,0.12325 -3.84355,2.01054 -3.84355,4.32064c0,2.38979 1.8207,4.32703 4.06666,4.32703l11.69158,0c2.24604,0 4.06672,-1.93723 4.06672,-4.32703c0,-2.38977 -1.82067,-4.32704 -4.06672,-4.32704l-0.08797,0zm-10.28261,0.12747c0.25141,-2.60056 1.90552,-4.28663 4.52482,-4.28663c2.61256,0 4.27438,1.69766 4.5248,4.28672c0.06344,0.655 0.59648,1.15379 1.23299,1.15377l0.0881,0c1.55353,0 2.82753,1.35552 2.82753,3.04572c0,1.69019 -1.274,3.0457 -2.82766,3.0457l-11.69158,0c-1.55361,0 -2.8276,-1.35551 -2.8276,-3.0457c0,-1.69019 1.27399,-3.04572 2.82762,-3.04572l0.08801,0c0.6366,0.00003 1.16963,-0.49882 1.23296,-1.15386z"/>
</svg>
